<svg width="22" height="22" viewBox="0 0 22 22" fill="none" xmlns="http://www.w3.org/2000/svg">
<g clip-path="url(#clip0_114_20363)">
<g clip-path="url(#clip1_114_20363)">
<g clip-path="url(#clip2_114_20363)">
<mask id="mask0_114_20363" style="mask-type:luminance" maskUnits="userSpaceOnUse" x="0" y="0" width="22" height="22">
<path d="M0 0H22V22H0V0Z" fill="white"/>
</mask>
<g mask="url(#mask0_114_20363)">
<path d="M21.0887 0H10.4971C10.4971 2.64 12.6337 4.77752 15.2746 4.77752H17.2225V6.66292C17.2225 9.30292 19.36 11.44 22 11.44V0.91124C21.9998 0.669636 21.9037 0.437994 21.7328 0.267153C21.562 0.0963132 21.3304 0.000232984 21.0887 0Z" fill="#2684FF"/>
<path d="M15.8402 5.28027H5.24854C5.24854 7.92027 7.38562 10.0578 10.0252 10.0578H11.9744V11.9428C11.9744 14.5828 14.1119 16.7207 16.7519 16.7207V6.19107C16.7514 5.9495 16.6552 5.71798 16.4843 5.54724C16.3134 5.37651 16.0818 5.28051 15.8402 5.28027Z" fill="url(#paint0_linear_114_20363)"/>
<path d="M10.5917 10.5596H7.3029e-07C-0.000346301 11.1871 0.122991 11.8085 0.362961 12.3883C0.602931 12.9681 0.954827 13.4949 1.39853 13.9386C1.84223 14.3823 2.36904 14.7342 2.94883 14.9741C3.52862 15.2141 4.15003 15.3374 4.77752 15.3371H6.7254V17.2234C6.7254 19.8634 8.86292 22 11.5029 22V11.4721C11.5027 11.2305 11.4067 10.9988 11.236 10.8277C11.0653 10.6567 10.8333 10.5603 10.5917 10.5596Z" fill="url(#paint1_linear_114_20363)"/>
</g>
</g>
</g>
</g>
<defs>
<linearGradient id="paint0_linear_114_20363" x1="16.5315" y1="5.29215" x2="12.025" y2="9.93855" gradientUnits="userSpaceOnUse">
<stop offset="0.176" stop-color="#0052CC"/>
<stop offset="1" stop-color="#2684FF"/>
</linearGradient>
<linearGradient id="paint1_linear_114_20363" x1="11.5874" y1="10.6005" x2="6.37692" y2="15.6697" gradientUnits="userSpaceOnUse">
<stop offset="0.176" stop-color="#0052CC"/>
<stop offset="1" stop-color="#2684FF"/>
</linearGradient>
<clipPath id="clip0_114_20363">
<rect width="22" height="22" fill="white"/>
</clipPath>
<clipPath id="clip1_114_20363">
<rect width="22" height="22" fill="white"/>
</clipPath>
<clipPath id="clip2_114_20363">
<rect width="22" height="22" fill="white"/>
</clipPath>
</defs>
</svg>
