<svg width="22" height="22" viewBox="0 0 22 22" fill="none" xmlns="http://www.w3.org/2000/svg">
<g clip-path="url(#clip0_114_20347)">
<g clip-path="url(#clip1_114_20347)">
<g clip-path="url(#clip2_114_20347)">
<path d="M20.6077 7.76859C20.6077 11.7515 18.8321 13.8498 16.9071 15.2303L16.5322 15.4888L16.1573 15.7308L15.7833 15.9599L15.4139 16.1753L14.0159 16.9591L13.8005 17.0838L13.3889 17.3313C11.9278 18.2443 10.9974 19.2288 10.9194 21.459L10.9139 21.7707H6.77793C6.77793 17.9161 8.44077 15.8261 10.2934 14.4447L10.6664 14.1779C10.7288 14.1348 10.7911 14.0918 10.8534 14.0505L11.2293 13.8085L11.6024 13.5793L12.3357 13.1577L13.3697 12.5802L13.7941 12.3318C15.3726 11.3821 16.3846 10.4113 16.4662 8.08025L16.4717 7.76859H20.6077ZM15.2223 0.229004C15.2223 4.08359 13.5594 6.17267 11.7069 7.555L11.3338 7.82175L11.1468 7.94917L10.7709 8.19117L10.3979 8.42034L9.66452 8.84109L8.63052 9.42042L8.2061 9.66792C8.13799 9.70853 8.07046 9.75009 8.00352 9.79259L7.61852 10.0438C6.37918 10.8944 5.6046 11.8927 5.53402 13.9194L5.52852 14.2311H1.3916C1.3916 10.1189 3.2836 8.01609 5.2801 6.63834L5.65502 6.38809L6.02993 6.15342L6.4021 5.93159L7.98427 5.03967L8.40777 4.79217C9.98627 3.8425 10.9983 2.87175 11.0799 0.540671L11.0854 0.229004H15.2223Z" fill="#FF3C00"/>
</g>
</g>
</g>
<defs>
<clipPath id="clip0_114_20347">
<rect width="22" height="22" fill="white"/>
</clipPath>
<clipPath id="clip1_114_20347">
<rect width="22" height="22" fill="white"/>
</clipPath>
<clipPath id="clip2_114_20347">
<rect width="22" height="22" fill="white"/>
</clipPath>
</defs>
</svg>
