<svg width="22" height="22" viewBox="0 0 22 22" fill="none" xmlns="http://www.w3.org/2000/svg">
<g clip-path="url(#clip0_114_20297)">
<g clip-path="url(#clip1_114_20297)">
<g clip-path="url(#clip2_114_20297)">
<mask id="mask0_114_20297" style="mask-type:luminance" maskUnits="userSpaceOnUse" x="3" y="0" width="16" height="22">
<path d="M3.52002 0H18.1896V22H3.52002V0Z" fill="white"/>
</mask>
<g mask="url(#mask0_114_20297)">
<path d="M7.18796 22C9.21196 22 10.8545 20.3575 10.8545 18.3335V14.6665H7.18796C6.21549 14.6667 5.28292 15.0532 4.59528 15.7408C3.90764 16.4284 3.52123 17.361 3.521 18.3335C3.521 20.3575 5.16396 22 7.18796 22Z" fill="#0ACF83"/>
<path d="M3.521 11C3.521 8.97602 5.16396 7.3335 7.18796 7.3335H10.8545V14.6665H7.18796C6.21557 14.6663 5.28306 14.2799 4.59544 13.5924C3.90781 12.9049 3.52135 11.9724 3.521 11Z" fill="#A259FF"/>
<path d="M3.521 3.66652C3.521 1.64252 5.16396 0 7.18796 0H10.8545V7.33348H7.18796C6.21549 7.33325 5.28292 6.94683 4.59528 6.25919C3.90764 5.57156 3.52123 4.63899 3.521 3.66652Z" fill="#F24E1E"/>
<path d="M10.8545 0H14.521C16.545 0 18.188 1.64252 18.188 3.66652C18.188 5.69052 16.545 7.33348 14.521 7.33348H10.8545V0Z" fill="#FF7262"/>
<path d="M18.188 11C18.188 13.024 16.545 14.6665 14.521 14.6665C13.5487 14.6662 12.6163 14.2798 11.9288 13.5923C11.2412 12.9047 10.8548 11.9723 10.8545 11C10.8545 8.97602 12.497 7.3335 14.521 7.3335C16.545 7.3335 18.188 8.97602 18.188 11Z" fill="#1ABCFE"/>
</g>
</g>
</g>
</g>
<defs>
<clipPath id="clip0_114_20297">
<rect width="22" height="22" fill="white"/>
</clipPath>
<clipPath id="clip1_114_20297">
<rect width="22" height="22" fill="white"/>
</clipPath>
<clipPath id="clip2_114_20297">
<rect width="14.96" height="22" fill="white" transform="translate(3.52002)"/>
</clipPath>
</defs>
</svg>
