<svg width="22" height="22" viewBox="0 0 22 22" fill="none" xmlns="http://www.w3.org/2000/svg">
<g clip-path="url(#clip0_114_20373)">
<g clip-path="url(#clip1_114_20373)">
<g clip-path="url(#clip2_114_20373)">
<path d="M21.7712 10.9998C21.7712 12.1415 21.685 13.2833 21.4911 14.3819C20.9095 18.0224 18.0229 20.909 14.3824 21.4906C13.2837 21.6845 12.142 21.7707 11.0003 21.7707C9.85862 21.7707 8.71691 21.6845 7.61828 21.4906C3.97774 20.909 1.09116 18.0224 0.509534 14.3819C0.315659 13.2833 0.229492 12.1415 0.229492 10.9998C0.229492 9.85813 0.315659 8.71642 0.509534 7.6178C1.09116 3.97725 3.97774 1.09067 7.61828 0.509046C8.71691 0.315171 9.85862 0.229004 11.0003 0.229004C12.142 0.229004 13.2837 0.315171 14.3824 0.509046C18.0229 1.09067 20.9095 3.97725 21.4911 7.6178C21.685 8.71642 21.7712 9.85813 21.7712 10.9998Z" fill="url(#paint0_linear_114_20373)"/>
<path d="M17.3978 17.7214H6.54034C5.82947 17.7214 5.14013 17.3334 4.81701 16.7087C4.42926 15.9762 4.58005 15.093 5.1619 14.5114L12.723 6.95052H7.29476C5.80861 6.95052 4.60205 5.74419 4.60205 4.25781H14.5976C15.3083 4.25781 15.9978 4.64556 16.3209 5.27027C16.7085 6.00269 16.5577 6.8859 15.976 7.46752L8.43647 15.0502H14.7053C16.1915 15.0502 17.3978 16.235 17.3978 17.7214Z" fill="white"/>
</g>
</g>
</g>
<defs>
<linearGradient id="paint0_linear_114_20373" x1="510.034" y1="2059.87" x2="1644.59" y2="94.7582" gradientUnits="userSpaceOnUse">
<stop stop-color="#0845BF"/>
<stop offset="0.191" stop-color="#0950DE"/>
<stop offset="0.382" stop-color="#0B59F6"/>
<stop offset="0.5" stop-color="#0B5CFF"/>
<stop offset="0.673" stop-color="#0E5EFE"/>
<stop offset="0.777" stop-color="#1665FC"/>
<stop offset="0.863" stop-color="#246FF9"/>
<stop offset="0.939" stop-color="#387FF4"/>
<stop offset="1" stop-color="#4F90EE"/>
</linearGradient>
<clipPath id="clip0_114_20373">
<rect width="22" height="22" fill="white"/>
</clipPath>
<clipPath id="clip1_114_20373">
<rect width="22" height="22" fill="white"/>
</clipPath>
<clipPath id="clip2_114_20373">
<rect width="22" height="22" fill="white"/>
</clipPath>
</defs>
</svg>
